<svg width="17" height="16" xmlns="http://www.w3.org/2000/svg">
  <defs>
    <linearGradient id="halfFillGradient" x1="0%" y1="100%" x2="0%" y2="0%">
      <stop offset="50%" stop-color="#EF9546" />
      <stop offset="50%" stop-color="#FFFFFF" />
    </linearGradient>
  </defs>
  <path d="M16.539 6.097a.297.297 0 00-.24-.202l-5.36-.779L8.542.26a.296.296 0 00-.53 0L5.613 5.117l-5.36.779a.297.297 0 00-.165.505l3.88 3.78-.917 5.34a.297.297 0 00.43.312l4.795-2.52 4.794 2.52a.296.296 0 00.43-.313l-.916-5.338L16.464 6.4c.08-.08.11-.197.075-.304z" fill="url(#halfFillGradient)" fill-rule="nonzero"/>
</svg>
